
<svg width="163" height="163" viewBox="0 0 163 163" fill="none" xmlns="http://www.w3.org/2000/svg">
<path d="M81.25 0C36.4492 0 0 36.4492 0 81.25C0 126.051 36.4492 162.5 81.25 162.5C126.051 162.5 162.5 126.051 162.5 81.25C162.5 36.4492 126.051 0 81.25 0ZM112.5 87.5H87.5V112.5C87.5 114.158 86.8415 115.747 85.6694 116.919C84.4973 118.092 82.9076 118.75 81.25 118.75C79.5924 118.75 78.0027 118.092 76.8306 116.919C75.6585 115.747 75 114.158 75 112.5V87.5H50C48.3424 87.5 46.7527 86.8415 45.5806 85.6694C44.4085 84.4973 43.75 82.9076 43.75 81.25C43.75 79.5924 44.4085 78.0027 45.5806 76.8306C46.7527 75.6585 48.3424 75 50 75H75V50C75 48.3424 75.6585 46.7527 76.8306 45.5806C78.0027 44.4085 79.5924 43.75 81.25 43.75C82.9076 43.75 84.4973 44.4085 85.6694 45.5806C86.8415 46.7527 87.5 48.3424 87.5 50V75H112.5C114.158 75 115.747 75.6585 116.919 76.8306C118.092 78.0027 118.75 79.5924 118.75 81.25C118.75 82.9076 118.092 84.4973 116.919 85.6694C115.747 86.8415 114.158 87.5 112.5 87.5Z" fill="#3839AF"/>
</svg>
