<svg width="32" height="32" viewBox="0 0 32 32" fill="none" xmlns="http://www.w3.org/2000/svg">
<rect x="0.5" y="0.5" width="31" height="31" rx="15.5" stroke="#3839AF"/>
<path d="M22.1065 13.7335H15.2483L16.7498 12.232C17.4892 11.4925 17.4892 10.2921 16.7498 9.55456C16.0104 8.81515 14.8118 8.81515 14.0724 9.55456L8 15.627L14.0724 21.6994C14.4417 22.0696 14.9264 22.2542 15.4111 22.2542C15.8959 22.2542 16.3796 22.0696 16.7498 21.6994C17.4892 20.96 17.4892 19.7595 16.7498 19.022L15.2483 17.5205H22.1065C23.1517 17.5205 24 16.6722 24 15.627C24 14.5808 23.1517 13.7335 22.1065 13.7335Z" fill="#3839AF"/>
</svg>
