<svg width="208" height="188" viewBox="0 0 208 188" fill="none" xmlns="http://www.w3.org/2000/svg">
<path d="M104 22C115.008 22 125.589 23.7067 135.477 26.5973C135.91 26.7265 136.302 26.9666 136.613 27.2938C136.925 27.621 137.146 28.0239 137.253 28.4627C137.361 28.9014 137.352 29.3607 137.228 29.795C137.104 30.2293 136.868 30.6236 136.544 30.9387L127.755 39.7387C127.428 40.0624 127.025 40.2979 126.583 40.4229C126.141 40.5479 125.674 40.5584 125.227 40.4533C118.266 38.8368 111.145 38.0138 104 38C79.6053 38 57.28 47.8453 40.992 60.3467C32.864 66.5867 26.4427 73.3387 22.112 79.5573C17.6427 86 16 91.0453 16 94C16 96.9547 17.6427 102 22.112 108.443C25.888 113.883 31.264 119.717 37.984 125.264C39.2213 126.277 39.3387 128.144 38.1973 129.285L30.6453 136.848C30.1828 137.317 29.5607 137.595 28.9027 137.627C28.2446 137.658 27.5987 137.441 27.0933 137.019C20.2258 131.356 14.1327 124.814 8.97067 117.563C3.73333 110 0 101.712 0 94C0 86.288 3.73333 78 8.97067 70.4373C14.368 62.6613 22.0053 54.7573 31.2427 47.6533C49.7067 33.488 75.3707 22 104 22Z" fill="#3839AF"/>
<path fill-rule="evenodd" clip-rule="evenodd" d="M194.987 14.32C196.4 12.8035 197.169 10.7976 197.133 8.72508C197.096 6.65254 196.256 4.6751 194.791 3.20936C193.325 1.74362 191.347 0.904025 189.275 0.867457C187.202 0.83089 185.197 1.6002 183.68 3.01332L13.0133 173.68C12.2273 174.412 11.5969 175.296 11.1597 176.277C10.7224 177.258 10.4873 178.318 10.4684 179.392C10.4494 180.466 10.647 181.533 11.0494 182.529C11.4517 183.525 12.0506 184.43 12.8103 185.19C13.5699 185.949 14.4748 186.548 15.471 186.951C16.4671 187.353 17.5341 187.551 18.6082 187.532C19.6824 187.513 20.7417 187.278 21.7231 186.84C22.7044 186.403 23.5876 185.773 24.32 184.987L54.688 154.619C69.2693 161.488 86.048 166 104 166C132.629 166 158.293 154.512 176.747 140.347C185.995 133.253 193.632 125.339 199.029 117.563C204.277 110 208 101.712 208 94C208 86.288 204.267 78 199.029 70.4373C193.632 62.6613 185.995 54.7573 176.757 47.6533C173.952 45.5093 170.997 43.4187 167.883 41.4347L194.987 14.32ZM156.267 53.0507L137.376 71.9413C142.469 79.6334 144.747 88.8494 143.823 98.0284C142.9 107.207 138.832 115.785 132.308 122.308C125.785 128.832 117.207 132.899 108.028 133.823C98.8495 134.747 89.6334 132.469 81.9413 127.376L66.8267 142.48C78.6149 147.367 91.2392 149.921 104 150C128.395 150 150.72 140.155 167.008 127.653C175.136 121.413 181.557 114.661 185.888 108.443C190.357 102 192 96.9547 192 94C192 91.0453 190.357 86 185.888 79.5573C181.557 73.3387 175.136 66.5867 167.008 60.3467C163.669 57.7867 160.085 55.3333 156.267 53.0507ZM93.6427 115.664C98.1212 117.803 103.153 118.501 108.044 117.661C112.936 116.822 117.447 114.487 120.956 110.978C124.466 107.468 126.801 102.957 127.64 98.0656C128.479 93.174 127.782 88.1425 125.643 83.664L93.6427 115.664Z" fill="#3839AF"/>
<path d="M104 54C105.259 54 106.517 54.0533 107.744 54.1707C109.845 54.3733 110.603 56.88 109.12 58.3733L96.1813 71.3013C92.736 72.4925 89.6063 74.4509 87.0286 77.0286C84.4509 79.6063 82.4925 82.736 81.3013 86.1813L68.3733 99.12C66.88 100.613 64.3733 99.8453 64.1707 97.744C63.6494 92.1995 64.2917 86.6072 66.0563 81.3252C67.8209 76.0432 70.6691 71.1879 74.4184 67.0701C78.1676 62.9523 82.7355 59.6628 87.8294 57.4122C92.9233 55.1615 98.431 53.9993 104 54Z" fill="#3839AF"/>
</svg>
