<svg width="40" height="41" viewBox="0 0 40 41" fill="none" xmlns="http://www.w3.org/2000/svg">
<path fill-rule="evenodd" clip-rule="evenodd" d="M39.3686 6.59446C39.5665 6.89489 39.6547 7.25442 39.6183 7.61235C39.5819 7.97028 39.423 8.30466 39.1686 8.55904L20.0165 27.709C19.8206 27.9048 19.5761 28.0451 19.3082 28.1153L11.3311 30.1986C11.0674 30.2674 10.7903 30.266 10.5273 30.1946C10.2643 30.1232 10.0246 29.9842 9.83191 29.7916C9.63922 29.5989 9.50027 29.3591 9.42887 29.0961C9.35746 28.8332 9.35607 28.5561 9.42484 28.2924L11.5082 20.3174C11.569 20.078 11.6837 19.8557 11.8436 19.6674L31.0665 0.456958C31.3595 0.164353 31.7566 0 32.1707 0C32.5847 0 32.9819 0.164353 33.2748 0.456958L39.1686 6.34862C39.2434 6.42364 39.3104 6.506 39.3686 6.59446ZM35.854 7.45279L32.1707 3.77154L14.4248 21.5174L13.1228 26.5028L18.1082 25.2007L35.854 7.45279Z" fill="#3839AF"/>
<path d="M35.5895 31.0611C36.1589 26.1944 36.3407 21.29 36.1332 16.3945C36.1287 16.2791 36.148 16.1641 36.19 16.0566C36.2319 15.949 36.2956 15.8513 36.377 15.7695L38.427 13.7195C38.483 13.6631 38.5541 13.6242 38.6317 13.6073C38.7093 13.5904 38.7902 13.5962 38.8646 13.6242C38.9389 13.6521 39.0037 13.7009 39.0509 13.7648C39.0982 13.8286 39.1261 13.9048 39.1311 13.984C39.517 19.7991 39.3705 25.6373 38.6936 31.4257C38.202 35.6382 34.8186 38.9403 30.6249 39.409C23.3444 40.2153 15.9971 40.2153 8.71656 39.409C4.5249 38.9403 1.13948 35.6382 0.647813 31.4257C-0.215938 24.0412 -0.215938 16.5811 0.647813 9.19654C1.13948 4.98404 4.52281 1.68196 8.71656 1.21321C14.2423 0.600462 19.8097 0.452026 25.3603 0.769457C25.4397 0.775161 25.5159 0.803511 25.5797 0.851149C25.6435 0.898786 25.6924 0.963717 25.7204 1.03825C25.7485 1.11278 25.7546 1.1938 25.738 1.2717C25.7215 1.3496 25.6829 1.42112 25.627 1.47779L23.5582 3.54446C23.4772 3.62518 23.3805 3.68846 23.2741 3.73038C23.1677 3.7723 23.0538 3.79198 22.9395 3.78821C18.3077 3.63076 13.6706 3.8083 9.06448 4.31946C7.71852 4.46843 6.46209 5.0668 5.49813 6.0179C4.53418 6.969 3.91901 8.21729 3.75198 9.56112C2.91666 16.7035 2.91666 23.9188 3.75198 31.0611C3.91901 32.405 4.53418 33.6533 5.49813 34.6044C6.46209 35.5554 7.71852 36.1538 9.06448 36.3028C16.0541 37.084 23.2874 37.084 30.2791 36.3028C31.625 36.1538 32.8815 35.5554 33.8454 34.6044C34.8094 33.6533 35.4225 32.405 35.5895 31.0611Z" fill="#3839AF"/>
</svg>
