<svg width="208" height="144" viewBox="0 0 208 144" fill="none" xmlns="http://www.w3.org/2000/svg">
<path fill-rule="evenodd" clip-rule="evenodd" d="M64 72C64 61.3913 68.2143 51.2172 75.7157 43.7157C83.2172 36.2143 93.3913 32 104 32C114.609 32 124.783 36.2143 132.284 43.7157C139.786 51.2172 144 61.3913 144 72C144 82.6087 139.786 92.7828 132.284 100.284C124.783 107.786 114.609 112 104 112C93.3913 112 83.2172 107.786 75.7157 100.284C68.2143 92.7828 64 82.6087 64 72ZM104 48C97.6348 48 91.5303 50.5286 87.0294 55.0294C82.5286 59.5303 80 65.6348 80 72C80 78.3652 82.5286 84.4697 87.0294 88.9706C91.5303 93.4714 97.6348 96 104 96C110.365 96 116.47 93.4714 120.971 88.9706C125.471 84.4697 128 78.3652 128 72C128 65.6348 125.471 59.5303 120.971 55.0294C116.47 50.5286 110.365 48 104 48Z" fill="#3839AF"/>
<path fill-rule="evenodd" clip-rule="evenodd" d="M22.112 57.5573C17.6427 64 16 69.0453 16 72C16 74.9547 17.6427 80 22.112 86.4427C26.4427 92.6613 32.864 99.4133 40.992 105.653C57.28 118.155 79.6053 128 104 128C128.395 128 150.72 118.155 167.008 105.653C175.136 99.4133 181.557 92.6613 185.888 86.4427C190.357 80 192 74.9547 192 72C192 69.0453 190.357 64 185.888 57.5573C181.557 51.3387 175.136 44.5867 167.008 38.3467C150.72 25.8453 128.395 16 104 16C79.6053 16 57.28 25.8453 40.992 38.3467C32.864 44.5867 26.4427 51.3387 22.112 57.5573ZM31.2427 25.6533C49.7067 11.488 75.3707 0 104 0C132.629 0 158.293 11.488 176.747 25.6533C185.995 32.7467 193.632 40.6613 199.029 48.4373C204.277 56 208 64.288 208 72C208 79.712 204.267 88 199.029 95.5627C193.632 103.339 185.995 111.243 176.757 118.347C158.304 132.512 132.629 144 104 144C75.3707 144 49.7067 132.512 31.2533 118.347C22.0053 111.253 14.368 103.339 8.97067 95.5627C3.73333 88 0 79.712 0 72C0 64.288 3.73333 56 8.97067 48.4373C14.368 40.6613 22.0053 32.7573 31.2427 25.6533Z" fill="#3839AF"/>
</svg>
