<svg width="125" height="89" viewBox="0 0 125 89" fill="none" xmlns="http://www.w3.org/2000/svg">
<path d="M10.586 34.1289C24.0625 21.1992 42.3438 13.25 62.5 13.25C82.6563 13.25 100.938 21.1992 114.414 34.1289C116.914 36.5117 120.859 36.4336 123.242 33.9531C125.625 31.4727 125.547 27.5078 123.066 25.125C107.363 10.0273 86.0156 0.75 62.5 0.75C38.9844 0.75 17.6367 10.0273 1.91408 25.1055C-0.566384 27.5078 -0.644509 31.4531 1.7383 33.9531C4.12112 36.4531 8.08596 36.5313 10.5664 34.1289H10.586ZM62.5 44.5C73.5938 44.5 83.711 48.6211 91.4453 55.4375C94.043 57.7227 97.9883 57.4688 100.273 54.8906C102.559 52.3125 102.305 48.3477 99.7266 46.0625C89.8047 37.3125 76.7578 32 62.5 32C48.2422 32 35.1953 37.3125 25.293 46.0625C22.6953 48.3477 22.461 52.293 24.7461 54.8906C27.0313 57.4883 30.9766 57.7227 33.5742 55.4375C41.2891 48.6211 51.4063 44.5 62.5196 44.5H62.5ZM75 75.75C75 72.4348 73.6831 69.2554 71.3389 66.9112C68.9946 64.567 65.8152 63.25 62.5 63.25C59.1848 63.25 56.0054 64.567 53.6612 66.9112C51.317 69.2554 50 72.4348 50 75.75C50 79.0652 51.317 82.2446 53.6612 84.5888C56.0054 86.933 59.1848 88.25 62.5 88.25C65.8152 88.25 68.9946 86.933 71.3389 84.5888C73.6831 82.2446 75 79.0652 75 75.75Z" fill="#3839AF"/>
</svg>
