<svg width="200" height="200" viewBox="0 0 200 200" fill="none" xmlns="http://www.w3.org/2000/svg">
<g clip-path="url(#clip0_59_32)">
<path d="M100 75C109.205 75 116.667 67.5381 116.667 58.3333C116.667 49.1286 109.205 41.6667 100 41.6667C90.795 41.6667 83.3334 49.1286 83.3334 58.3333C83.3334 67.5381 90.795 75 100 75Z" fill="#3839AF"/>
<path d="M116.667 100C116.667 109.205 109.205 116.667 100 116.667C90.795 116.667 83.3334 109.205 83.3334 100C83.3334 90.795 90.795 83.3333 100 83.3333C109.205 83.3333 116.667 90.795 116.667 100Z" fill="#3839AF"/>
<path d="M100 158.333C109.205 158.333 116.667 150.872 116.667 141.667C116.667 132.462 109.205 125 100 125C90.795 125 83.3334 132.462 83.3334 141.667C83.3334 150.872 90.795 158.333 100 158.333Z" fill="#3839AF"/>
<path fill-rule="evenodd" clip-rule="evenodd" d="M200 100C200 155.228 155.228 200 100 200C44.7715 200 0 155.228 0 100C0 44.7715 44.7715 0 100 0C155.228 0 200 44.7715 200 100ZM183.333 100C183.333 146.023 146.023 183.333 100 183.333C53.9762 183.333 16.6667 146.023 16.6667 100C16.6667 53.9762 53.9762 16.6667 100 16.6667C146.023 16.6667 183.333 53.9762 183.333 100Z" fill="#3839AF"/>
</g>
<defs>
<clipPath id="clip0_59_32">
<rect width="200" height="200" fill="white"/>
</clipPath>
</defs>
</svg>
