<svg width="163" height="163" viewBox="0 0 163 163" fill="none" xmlns="http://www.w3.org/2000/svg">
<path d="M142.957 89.3746C143.371 86.939 143.371 84.0941 143.371 81.2496C143.371 78.4051 142.957 75.9691 142.957 73.1246L160.405 59.7191C162.069 58.5012 162.483 56.4703 161.237 54.4387L144.616 26.4059C143.785 24.7793 141.293 23.9703 139.629 24.7793L118.853 32.9047C114.698 29.6555 109.715 26.8105 104.728 24.7793L101.819 3.24922C101.405 1.62656 99.7411 0 97.6634 0H64.422C62.3447 0 60.681 1.62656 60.2669 3.24922L56.9435 24.7793C51.9564 26.8105 47.3872 29.6551 42.8142 32.9047L22.0384 24.7793C19.9607 23.9703 17.883 24.7793 17.0513 26.4059L0.430605 54.4391C-0.397129 56.0613 0.0161526 58.5012 1.26225 59.7195L19.1298 73.1246C19.1298 75.9691 18.7158 78.4051 18.7158 81.2496C18.7158 84.0941 19.1298 86.5301 19.1298 89.3746L1.68139 102.78C0.0173235 103.998 -0.395956 106.029 0.849356 108.061L17.4701 136.093C18.3021 137.72 20.7935 138.529 22.4572 137.72L43.2333 129.595C47.3884 132.844 52.3716 135.689 57.3583 137.72L60.6818 159.25C61.0994 161.281 62.7591 162.499 64.8369 162.499H98.0783C100.156 162.499 101.82 160.873 102.234 159.25L105.561 137.72C110.544 135.689 115.117 132.844 119.686 129.595L140.462 137.72C142.54 138.529 144.617 137.72 145.449 136.093L162.07 108.06C162.902 106.438 162.484 103.998 161.238 102.78L142.957 89.3746ZM81.0431 109.687C64.8365 109.687 51.9572 97.0953 51.9572 81.2496C51.9572 65.4039 64.8365 52.8121 81.0431 52.8121C97.2497 52.8121 110.129 65.4039 110.129 81.2496C110.129 97.0953 97.2497 109.687 81.0431 109.687Z" fill="#3839AF"/>
</svg>
